<svg xmlns="http://www.w3.org/2000/svg" xmlns:xlink="http://www.w3.org/1999/xlink" version="1.1" x="0px" y="0px" viewBox="0 0 100 100" enable-background="new 0 0 100 100" xml:space="preserve"><path d="M4.072,0C4.072,0,0,0,0,4.072v34.687v51.772v2.803c0,0,0,6.666,6.666,6.666h86.668c0,0,6.666,0,6.666-6.666V38.691  l-0.241,0.002c-0.134-0.241-0.431-0.536-0.98-0.909L74.357,21.087c0,0-2.714-1.853-4.33,1.008l-8.976,15.923  c0,0-0.898,1.586-2.502,1.619c-0.551-0.002-1.147-0.171-1.812-0.635L31.04,21.109c0,0-2.699-1.875-4.254,1.018L19.319,36.03V4.072  c0,0,0-4.072-4.072-4.072H4.072z"/></svg>